<svg
  width="800"
  height="800"
  viewBox="0 0 512 512"
  xml:space="preserve"
  xmlns="http://www.w3.org/2000/svg"
>
  <path
    d="M377.1 351.2h-51.5c-6.6 0-12-5.4-12-12s5.4-12 12-12h51.5c17.9 0 34.6-6.9 47.2-19.5s19.5-29.4 19.5-47.2c0-36.8-30-66.8-66.8-66.8h-82.9c-17.9 0-34.6 6.9-47.2 19.5s-19.5 29.4-19.5 47.2c0 6.6-5.4 12-12 12s-12-5.4-12-12c0-24.3 9.4-47.1 26.6-64.2s39.9-26.6 64.2-26.6h82.9c50.1 0 90.8 40.7 90.8 90.8 0 24.3-9.4 47.1-26.6 64.2s-40 26.6-64.2 26.6z"
    style="fill:#0bdc49"
  />
  <path
    d="M213.6 351.2h-82.9c-50.1 0-90.8-40.7-90.8-90.8 0-24.3 9.4-47.1 26.6-64.2s39.9-26.6 64.2-26.6h51.5c6.6 0 12 5.4 12 12s-5.4 12-12 12h-51.5c-17.9 0-34.6 6.9-47.2 19.5S64 242.5 64 260.3c0 36.8 30 66.8 66.8 66.8h82.9c17.9 0 34.6-6.9 47.2-19.5s19.5-29.4 19.5-47.2c0-6.6 5.4-12 12-12s12 5.4 12 12c0 24.3-9.4 47.1-26.6 64.2s-40 26.6-64.2 26.6z"
    style="fill:#6040ec"
  />
</svg>
